<?xml version="1.0" encoding="utf-8"?>
<!-- Generator: Adobe Illustrator 25.0.1, SVG Export Plug-In . SVG Version: 6.00 Build 0)  -->
<svg version="1.1" id="Laag_1" xmlns="http://www.w3.org/2000/svg" xmlns:xlink="http://www.w3.org/1999/xlink" x="0px" y="0px"
	 width="24px" height="24px" viewBox="0 0 24 24" style="enable-background:new 0 0 24 24;" xml:space="preserve">
<style type="text/css">
	.st0{fill:#175CFF;}
</style>
<path class="st0" d="M17.8,5.2c-2.2,0-3.9,1.8-3.9,3.9c0,2.2,1.8,3.9,3.9,3.9l0,0v1c0,0.5-0.4,1-1,1c-1.1,0-2,0.9-2,2s0.9,2,2,2
	c2.7,0,4.9-2.2,4.9-4.9v-5c0-0.1,0-0.2-0.1-0.3C21.6,6.7,19.9,5.2,17.8,5.2z M10,8.8c-0.2-2-1.8-3.6-3.9-3.6C4,5.2,2.2,6.9,2.2,9.1
	C2.2,11.2,4,13,6.1,13l0,0v1c0,0.5-0.4,1-1,1c-1.1,0-2,0.9-2,2s0.9,2,2,2c2.7,0,4.9-2.2,4.9-4.9v-5C10,9,10,8.9,10,8.8z"/>
</svg>
