<?xml version="1.0" encoding="utf-8"?>
<!-- Generator: Adobe Illustrator 25.0.1, SVG Export Plug-In . SVG Version: 6.00 Build 0)  -->
<svg version="1.1" id="Laag_1" xmlns="http://www.w3.org/2000/svg" xmlns:xlink="http://www.w3.org/1999/xlink" x="0px" y="0px"
	 width="370px" height="370px" viewBox="0 0 370 370" style="enable-background:new 0 0 370 370;" xml:space="preserve">
<style type="text/css">
	.st0{fill:none;}
	.st1{opacity:0.3;}
	.st2{fill:#175CFF;}
</style>
<path class="st0" d="M370,184.6v0.4c0,1,0,2,0,2.9c-0.1,6.6-0.5,13.2-1.3,19.6c-0.2,1.8-0.4,3.5-0.7,5.2c-1.3,8.4-3.1,16.7-5.5,24.7
	c-0.4,1.4-0.8,2.7-1.2,4.1c-1.9,6-4.1,11.8-6.6,17.5c-0.5,1-0.9,2-1.4,3.1c-2.4,5.3-5.1,10.5-8,15.5c-0.8,1.4-1.6,2.8-2.5,4.2
	c-10.6,17.2-23.9,32.6-39.4,45.4c-1.4,1.1-2.7,2.2-4.1,3.3c-10.1,8-21.2,14.9-32.9,20.6c-2.2,1.1-4.4,2.1-6.6,3.1
	c-19.9,8.8-41.6,14.1-64.4,15.4c-1.2,0.1-2.5,0.1-3.7,0.2c-2.1,0.1-4.3,0.1-6.5,0.1c-4.1,0-8.1-0.1-12.1-0.4c-1.5-0.1-3-0.2-4.5-0.3
	c-10.3-0.9-20.3-2.7-30.1-5.2c-1.9-0.5-3.8-1-5.7-1.6c-6.6-1.9-13-4.2-19.3-6.9c-1-0.4-2-0.9-3.1-1.3c-4.7-2.1-9.2-4.3-13.7-6.7
	c-0.8-0.5-1.7-0.9-2.5-1.4c-3.8-2.2-7.6-4.5-11.3-6.9c-0.8-0.5-1.5-1-2.3-1.5c-3.7-2.5-7.2-5.1-10.7-7.9c-0.7-0.5-1.4-1.1-2.1-1.7
	c-3.6-3-7.1-6.1-10.5-9.3c-0.7-0.6-1.4-1.3-2-2c-3.4-3.3-6.6-6.8-9.7-10.3c-0.6-0.7-1.2-1.4-1.8-2.1c-3.1-3.6-6-7.4-8.8-11.2
	c-0.5-0.8-1.1-1.5-1.6-2.3c-2.7-3.9-5.3-7.9-7.7-11.9c-0.5-0.8-0.9-1.6-1.4-2.4c-2.3-4.1-4.5-8.3-6.5-12.6c-0.4-0.8-0.8-1.7-1.2-2.5
	c-2-4.3-3.8-8.8-5.4-13.3c-0.3-0.9-0.6-1.8-1-2.7c-1.6-4.7-3-9.4-4.3-14.2c-0.3-1-0.5-2-0.7-3C3.8,223,2.8,217.8,2,212.4
	c-0.2-1.2-0.3-2.3-0.5-3.5c-0.8-6.3-1.3-12.7-1.5-19.1c0-1.4,0-2.8,0-4.1c0-0.2,0-0.4,0-0.7c0-6.3,0.3-12.5,0.9-18.6
	c0.1-1.2,0.2-2.4,0.4-3.6c0.7-5.8,1.6-11.4,2.8-17c0.2-1.1,0.5-2.1,0.7-3.2c1.1-4.8,2.4-9.5,3.9-14.1c0.3-1,0.6-2,1-3
	c2-6,4.4-11.8,7-17.5c0.7-1.6,1.5-3.2,2.3-4.8c7.2-14.7,16.3-28.2,27-40.3c1.1-1.2,2.2-2.5,3.3-3.6c27-29.1,63.2-49.5,103.9-56.6
	c1.3-0.2,2.6-0.4,3.9-0.6c8.1-1.2,16.4-1.9,24.8-2c1,0,2,0,3.1,0c1.5,0,3,0,4.5,0c12.1,0.3,23.9,1.7,35.3,4.2
	c1.3,0.3,2.5,0.6,3.8,0.9c5.3,1.3,10.6,2.8,15.7,4.5c0.9,0.3,1.8,0.6,2.8,1c4.3,1.5,8.5,3.2,12.7,5c0.9,0.4,1.8,0.8,2.7,1.2
	c4.6,2.1,9.1,4.5,13.5,7c0.9,0.5,1.8,1,2.7,1.6c4.7,2.8,9.2,5.7,13.6,8.8c0.9,0.6,1.8,1.3,2.6,1.9c4.4,3.3,8.7,6.7,12.8,10.4
	c0.8,0.8,1.7,1.5,2.5,2.3c3.9,3.6,7.7,7.4,11.3,11.3c0.8,0.8,1.5,1.7,2.3,2.5c3.3,3.8,6.5,7.7,9.5,11.8c0.6,0.9,1.3,1.7,1.9,2.6
	c2.8,3.9,5.4,7.8,7.9,11.9c0.5,0.9,1,1.7,1.6,2.6c2.3,4,4.5,8,6.5,12.2c0.4,0.9,0.9,1.7,1.3,2.6c1.9,4,3.6,8.1,5.2,12.2
	c0.3,0.9,0.7,1.8,1,2.7c1.5,4.1,2.9,8.2,4.1,12.4c0.3,0.9,0.5,1.8,0.8,2.7c1.2,4.2,2.2,8.6,3,13c0.2,0.9,0.3,1.8,0.5,2.7
	c0.8,4.6,1.5,9.2,2,14c0.1,1,0.2,1.9,0.3,2.9C369.8,174.1,370,179.3,370,184.6z"/>
<g id="waves_circle" class="st1">
	<g id="Group_709" transform="translate(-114.585 -119.098)">
		<path class="st2" d="M271.7,121.2c-0.2,0.2-0.3,0.4-0.4,0.6c-8,11.3-20.6,18.5-34.4,19.8c-13,1.3-24.8,8.1-32.4,18.7
			c-8,11.3-20.6,18.5-34.4,19.8c-3.3,0.2-6.5,0.8-9.6,1.8c1.1-1.2,2.2-2.5,3.3-3.6c2-0.4,4-0.8,6-1c13-1.2,24.8-8.1,32.4-18.7
			c8-11.3,20.6-18.5,34.4-19.8c12.3-1.2,23.5-7.4,31.2-17C269.1,121.6,270.4,121.4,271.7,121.2z"/>
		<path class="st2" d="M304,119.1c-3.5,1-6.9,2.5-10.1,4.4c-8.1,4.7-11,8.7-14.2,12.9c-8,11.3-20.6,18.5-34.4,19.8
			c-6.5,0.5-12.7,2.5-18.2,5.8c-5.7,3.1-10.6,7.5-14.2,12.9c-8,11.3-20.6,18.5-34.4,19.8c-13,1.3-24.8,8.1-32.4,18.7
			c-4,5.6-9.1,10.2-14.9,13.6c0.7-1.6,1.5-3.2,2.3-4.8c4-2.9,7.5-6.4,10.4-10.4c8-11.3,20.6-18.5,34.4-19.8
			c13-1.3,24.8-8.1,32.4-18.7c8-11.3,20.6-18.5,34.4-19.8c6.5-0.5,12.7-2.5,18.2-5.8c8.1-4.7,11-8.7,14.2-12.9
			c4.9-6.9,11.5-12.2,19-15.7c1,0,2,0,3.1,0C301.1,119.1,302.6,119.1,304,119.1z"/>
		<path class="st2" d="M343.1,124.2c-6.6,4.5-14.3,7.3-22.4,8.1c-13,1.3-24.8,8.1-32.4,18.7c-8,11.3-20.6,18.5-34.4,19.8
			c-13,1.2-24.8,8.1-32.4,18.7c-8,11.3-20.6,18.5-34.4,19.8c-13,1.3-24.8,8.1-32.4,18.7c-7.5,10.4-18.7,17.4-31.3,19.4
			c0.3-1,0.6-2,1-3c11.3-2.2,21.3-8.6,28.1-18.1c8-11.3,20.6-18.5,34.4-19.8c13-1.3,24.8-8.1,32.4-18.7c8-11.3,20.6-18.5,34.4-19.8
			c13-1.2,24.8-8.1,32.4-18.7c8-11.3,20.6-18.5,34.4-19.8c6.8-0.7,13.2-2.8,18.9-6.3C340.6,123.7,341.8,123.9,343.1,124.2z"/>
		<path class="st2" d="M361.6,129.7c-8,9.8-19.7,16.1-32.4,17.3c-13,1.3-24.8,8.1-32.4,18.7c-8,11.3-20.6,18.5-34.4,19.8
			c-13,1.2-24.8,8.1-32.4,18.7c-8,11.3-20.6,18.5-34.4,19.8c-6.5,0.4-12.7,2.5-18.2,5.8c-8.1,4.7-11,8.7-14.2,12.9
			c-8,11.3-20.6,18.5-34.4,19.8c-3.5,0.3-6.8,1.1-10,2.1c0.2-1.1,0.5-2.1,0.7-3.2c2.9-0.9,5.9-1.5,9-1.8c13-1.3,24.8-8.1,32.4-18.7
			c8-11.3,20.6-18.5,34.4-19.8c13-1.2,24.8-8.1,32.4-18.7c8-11.3,20.6-18.5,34.4-19.8c13-1.3,24.8-8.1,32.4-18.7
			c8-11.3,20.6-18.5,34.4-19.8c6.5-0.5,12.7-2.5,18.2-5.8c4.5-2.5,8.5-5.7,11.8-9.7C359.8,129.1,360.7,129.4,361.6,129.7z"/>
		<path class="st2" d="M377,136c-1.8,1.8-3.5,3.8-5,5.9c-8,11.3-20.6,18.5-34.4,19.8c-13,1.3-24.8,8.1-32.4,18.7
			c-8,11.3-20.6,18.5-34.4,19.8c-6.5,0.5-12.7,2.5-18.2,5.9c-5.7,3.1-10.5,7.5-14.2,12.9c-8,11.3-20.6,18.5-34.4,19.8
			c-6.5,0.5-12.7,2.5-18.2,5.9c-5.7,3.1-10.5,7.5-14.2,12.9c-8,11.3-20.6,18.5-34.4,19.8c-7.9,0.8-15.4,3.6-21.7,8.1
			c0.1-1.2,0.2-2.4,0.4-3.6c6.3-4,13.5-6.5,21-7.2c13-1.3,24.8-8.1,32.4-18.7c8-11.3,20.6-18.5,34.4-19.8c13-1.2,24.8-8.1,32.4-18.7
			c8-11.3,20.6-18.5,34.4-19.8c6.5-0.5,12.7-2.5,18.2-5.8c8.1-4.7,11-8.7,14.2-12.9c8-11.3,20.6-18.5,34.4-19.8
			c6.5-0.5,12.7-2.5,18.2-5.8c5.7-3.1,10.6-7.5,14.2-12.9c1.4-1.9,2.9-3.8,4.5-5.5C375.2,135.2,376.1,135.6,377,136z"/>
		<path class="st2" d="M393.2,144.5c-4.9,3.1-9.3,7.2-12.8,12c-8,11.3-20.6,18.5-34.4,19.8c-13,1.3-24.8,8.1-32.4,18.7
			c-8,11.3-20.6,18.5-34.4,19.8c-13,1.3-24.8,8.1-32.4,18.7c-8,11.3-20.6,18.5-34.4,19.8c-6.5,0.4-12.7,2.5-18.2,5.8
			c-8.1,4.7-11,8.7-14.2,12.9c-8,11.3-20.6,18.5-34.4,19.8c-6.5,0.4-12.7,2.5-18.2,5.8c-5,2.7-9.4,6.5-12.8,11c0-1.4,0-2.8,0-4.1
			c8-8.8,18.9-14.3,30.8-15.4c13-1.3,24.8-8.1,32.4-18.7c8-11.3,20.6-18.5,34.4-19.8c13-1.3,24.8-8.1,32.4-18.7
			c8-11.3,20.6-18.5,34.4-19.8c13-1.3,24.8-8.1,32.4-18.7c8-11.3,20.6-18.5,34.4-19.8c13-1.2,24.8-8.1,32.4-18.7
			c3.4-4.8,7.6-8.8,12.3-11.9C391.4,143.5,392.3,144,393.2,144.5z"/>
		<path class="st2" d="M409.5,155.3c-8.2,3.2-15.4,8.6-20.6,15.9c-8,11.3-20.6,18.5-34.4,19.8c-13,1.2-24.8,8.1-32.4,18.7
			c-8.1,11.3-20.6,18.5-34.4,19.8c-13,1.3-24.8,8.1-32.4,18.7c-8,11.3-20.6,18.5-34.4,19.8c-13,1.3-24.8,8.1-32.4,18.7
			c-8,11.3-20.6,18.5-34.4,19.8c-6.5,0.5-12.7,2.5-18.2,5.8c-5.7,3.1-10.5,7.5-14.2,12.9c-1.6,2.2-3.3,4.2-5.1,6.1
			c-0.2-1.2-0.3-2.3-0.5-3.5c1.2-1.3,2.3-2.7,3.4-4.2c8-11.3,20.6-18.5,34.4-19.8c13-1.3,24.8-8.1,32.4-18.7
			c8-11.3,20.6-18.5,34.4-19.8c13-1.3,24.8-8.1,32.4-18.7c8-11.3,20.6-18.5,34.4-19.8c13-1.3,24.8-8.1,32.4-18.7
			c8-11.3,20.6-18.5,34.4-19.8c13-1.3,24.8-8.1,32.4-18.7c5.2-7.2,12.2-12.8,20.2-16.2C407.7,154,408.6,154.6,409.5,155.3z"/>
		<path class="st2" d="M424.8,167.9c-11,2.3-20.8,8.7-27.4,18c-8,11.3-20.6,18.5-34.4,19.8c-13,1.3-24.8,8.1-32.4,18.7
			c-8,11.3-20.6,18.5-34.4,19.8c-13,1.3-24.8,8.1-32.4,18.7c-8.1,11.3-20.6,18.5-34.4,19.8c-6.5,0.5-12.7,2.5-18.2,5.8
			c-5.7,3.1-10.5,7.5-14.2,12.9c-8,11.3-20.6,18.5-34.4,19.8c-13,1.3-24.8,8.1-32.4,18.7c-2.8,3.9-6.1,7.3-9.8,10.2
			c-0.3-1-0.5-2-0.7-3c3.1-2.5,5.9-5.5,8.3-8.8c8-11.3,20.6-18.5,34.4-19.8c13-1.3,24.8-8.1,32.4-18.7c8-11.3,20.6-18.5,34.4-19.8
			c13-1.2,24.8-8.1,32.4-18.7c8-11.3,20.6-18.5,34.4-19.8c13-1.3,24.8-8.1,32.4-18.7c8-11.3,20.6-18.5,34.4-19.8
			c13-1.3,24.8-8.1,32.4-18.7c6.6-9.3,16.3-15.8,27.2-18.6C423.1,166.4,424,167.2,424.8,167.9z"/>
		<path class="st2" d="M438.4,181.8C438.4,181.8,438.3,181.8,438.4,181.8c-13.1,1.3-25,8.1-32.5,18.7c-8,11.3-20.6,18.5-34.4,19.8
			c-6.5,0.5-12.7,2.5-18.2,5.9c-5.7,3.1-10.6,7.5-14.2,12.9c-8,11.3-20.6,18.5-34.4,19.8c-13,1.3-24.8,8.1-32.4,18.7
			c-8,11.3-20.6,18.5-34.4,19.8c-13,1.3-24.8,8.1-32.4,18.7c-8,11.3-20.6,18.5-34.4,19.8c-13,1.3-24.8,8.1-32.4,18.7
			c-3.6,5-8,9.2-13,12.4c-0.3-0.9-0.6-1.8-1-2.7c4.5-3,8.5-6.8,11.8-11.4c8-11.3,20.6-18.5,34.4-19.8c6.5-0.5,12.7-2.5,18.2-5.8
			c8.1-4.7,11-8.7,14.2-12.9c8-11.3,20.6-18.5,34.4-19.8c13-1.3,24.8-8.1,32.4-18.7c8-11.3,20.6-18.5,34.4-19.8
			c13-1.2,24.8-8.1,32.4-18.7c8.1-11.3,20.6-18.5,34.4-19.8c13-1.2,24.8-8.1,32.4-18.7c7.7-10.8,19.5-17.9,32.5-19.6
			C436.9,180.1,437.6,181,438.4,181.8z"/>
		<path class="st2" d="M449.8,196.1c-1,0.2-2,0.3-3.1,0.3c-13,1.3-24.8,8.1-32.5,18.7c-8,11.3-20.6,18.5-34.4,19.8
			c-13,1.3-24.8,8.1-32.4,18.7c-8,11.3-20.6,18.5-34.4,19.8c-13,1.2-24.8,8.1-32.4,18.7c-8,11.3-20.6,18.5-34.4,19.8
			c-13,1.3-24.8,8.1-32.4,18.7c-8,11.3-20.6,18.5-34.4,19.8c-13,1.3-24.8,8.1-32.4,18.7c-4,5.6-9.1,10.2-14.9,13.6
			c-0.4-0.8-0.8-1.7-1.2-2.5c5.4-3.2,10.1-7.5,13.9-12.7c8-11.3,20.6-18.5,34.4-19.8c13-1.3,24.8-8.1,32.4-18.7
			c8-11.3,20.6-18.5,34.4-19.8c13-1.3,24.8-8.1,32.4-18.7c8-11.3,20.6-18.5,34.4-19.8c6.5-0.5,12.7-2.5,18.2-5.9
			c5.7-3.1,10.5-7.5,14.2-12.9c8-11.3,20.6-18.5,34.4-19.8c13-1.3,24.8-8.1,32.4-18.7c8-11.3,20.6-18.5,34.4-19.8
			c0.5,0,1-0.1,1.5-0.2C448.6,194.4,449.2,195.3,449.8,196.1z"/>
		<path class="st2" d="M459.3,210.6c-1.3,0.2-2.7,0.4-4,0.5c-13,1.3-24.8,8.1-32.4,18.7c-8,11.3-20.6,18.5-34.4,19.8
			c-13,1.3-24.8,8.1-32.4,18.7c-8,11.3-20.6,18.5-34.4,19.8c-13,1.3-24.8,8.1-32.4,18.7c-8,11.3-20.6,18.5-34.4,19.8
			c-13,1.2-24.8,8.1-32.4,18.7c-8,11.3-20.6,18.5-34.4,19.8c-13,1.3-24.8,8.1-32.4,18.7c-4.1,5.8-9.4,10.5-15.5,13.9
			c-0.5-0.8-0.9-1.6-1.4-2.4c0.1-0.1,0.3-0.2,0.4-0.2c5.7-3.1,10.6-7.5,14.2-12.9c8-11.3,20.6-18.5,34.4-19.8
			c13-1.3,24.8-8.1,32.4-18.7c8-11.3,20.6-18.5,34.4-19.8c13-1.2,24.8-8.1,32.4-18.7c8-11.3,20.6-18.5,34.4-19.8
			c13-1.3,24.8-8.1,32.4-18.7c8-11.3,20.6-18.5,34.4-19.8c13-1.3,24.8-8.1,32.4-18.7c8-11.3,20.6-18.5,34.4-19.8
			c0.9-0.1,1.9-0.2,2.8-0.4C458.2,208.9,458.8,209.8,459.3,210.6z"/>
		<path class="st2" d="M467.1,225.4c-1.1,0.2-2.2,0.3-3.4,0.4c-13,1.3-24.8,8.1-32.5,18.7c-8,11.3-20.6,18.5-34.4,19.8
			c-13,1.3-24.8,8.1-32.4,18.7c-8,11.3-20.6,18.5-34.4,19.8c-6.5,0.5-12.7,2.5-18.2,5.9c-5.7,3.1-10.5,7.5-14.2,12.9
			c-8,11.3-20.6,18.5-34.4,19.8c-13,1.3-24.8,8.1-32.4,18.7c-8,11.3-20.6,18.5-34.4,19.8c-13,1.2-24.8,8.1-32.4,18.7
			c-3.9,5.5-8.9,10-14.6,13.4c-0.5-0.8-1.1-1.5-1.6-2.3c5.5-3.2,10.2-7.5,14-12.8c8-11.3,20.6-18.5,34.4-19.8
			c6.5-0.4,12.7-2.4,18.2-5.8c5.7-3.1,10.5-7.5,14.2-12.9c8-11.3,20.6-18.5,34.4-19.8c13-1.3,24.8-8.1,32.4-18.7
			c8-11.3,20.6-18.5,34.4-19.8c13-1.3,24.8-8.1,32.4-18.7c8-11.3,20.6-18.5,34.4-19.8c13-1.3,24.8-8.1,32.4-18.7
			c8-11.3,20.6-18.5,34.4-19.8c0.8-0.1,1.6-0.1,2.4-0.2C466.2,223.7,466.7,224.6,467.1,225.4z"/>
		<path class="st2" d="M473.3,240.4c-0.4,0-0.8,0.1-1.2,0.1c-13,1.3-24.9,8.1-32.5,18.7c-8,11.3-20.6,18.5-34.4,19.8
			c-13,1.3-24.8,8.1-32.4,18.7c-8,11.3-20.6,18.5-34.4,19.8c-6.5,0.5-12.7,2.5-18.2,5.8c-8.1,4.7-11,8.7-14.2,12.9
			c-8,11.3-20.6,18.5-34.4,19.8c-13,1.2-24.8,8.1-32.4,18.7c-8,11.3-20.6,18.5-34.4,19.8c-6.5,0.5-12.7,2.5-18.2,5.8
			c-5.7,3.1-10.5,7.5-14.2,12.9c-3.4,4.8-7.7,8.9-12.5,12.1c-0.6-0.7-1.2-1.4-1.8-2.1c4.7-3,8.8-7,12.1-11.6
			c8.1-11.3,20.6-18.5,34.4-19.8c13-1.3,24.8-8.1,32.4-18.7c8-11.3,20.6-18.5,34.4-19.8c13-1.3,24.8-8.1,32.4-18.7
			c8-11.3,20.6-18.5,34.4-19.8c6.5-0.5,12.7-2.5,18.2-5.8c5.7-3.1,10.6-7.5,14.2-12.9c8-11.3,20.6-18.5,34.4-19.8
			c13-1.3,24.8-8.1,32.4-18.7c8-11.3,20.6-18.5,34.4-19.8c0.2,0,0.3,0,0.5,0C472.6,238.6,473,239.5,473.3,240.4z"/>
		<path class="st2" d="M478.1,255.5c-12,1.9-22.8,8.5-29.9,18.4c-8,11.3-20.6,18.5-34.4,19.8c-13,1.3-24.8,8.1-32.4,18.7
			c-8,11.3-20.6,18.5-34.4,19.8c-13,1.3-24.8,8.1-32.4,18.7c-8,11.3-20.6,18.5-34.4,19.8c-6.5,0.5-12.7,2.5-18.2,5.8
			c-8.1,4.7-11,8.7-14.2,12.9c-8,11.3-20.6,18.5-34.4,19.8c-6.5,0.5-12.7,2.5-18.2,5.8c-5.7,3.1-10.5,7.5-14.2,12.9
			c-2.6,3.7-5.8,6.9-9.2,9.7c-0.7-0.6-1.4-1.3-2-2c3.4-2.6,6.5-5.8,9-9.4c8-11.3,20.6-18.5,34.4-19.8c6.5-0.5,12.7-2.5,18.2-5.8
			c8.1-4.7,11-8.7,14.2-12.9c8-11.3,20.6-18.5,34.4-19.8c13-1.3,24.8-8.1,32.4-18.7c8-11.3,20.6-18.5,34.4-19.8
			c13-1.3,24.8-8.1,32.4-18.7c8-11.3,20.6-18.5,34.4-19.8c13-1.2,24.8-8.1,32.4-18.7c7.5-10.5,18.8-17.4,31.4-19.4
			C477.6,253.7,477.9,254.6,478.1,255.5z"/>
		<path class="st2" d="M481.7,271.1c-10,2.7-18.9,8.8-25,17.4c-8,11.3-20.6,18.5-34.4,19.8c-13,1.3-24.8,8.1-32.4,18.7
			c-8,11.3-20.6,18.5-34.4,19.8c-13,1.3-24.8,8.1-32.4,18.7c-8,11.3-20.6,18.5-34.4,19.8c-6.5,0.5-12.7,2.5-18.2,5.8
			c-5.7,3.1-10.5,7.5-14.2,12.9c-8,11.3-20.6,18.5-34.4,19.8c-13,1.3-24.8,8.1-32.4,18.7c-1.5,2.2-3.3,4.2-5.1,6.1
			c-0.7-0.5-1.4-1.1-2.1-1.7c1.8-1.8,3.5-3.8,5-6c8-11.3,20.6-18.5,34.4-19.8c13-1.3,24.8-8.1,32.4-18.7
			c8.1-11.3,20.6-18.5,34.4-19.8c13-1.3,24.8-8.1,32.4-18.7c8-11.3,20.6-18.5,34.4-19.8c13-1.3,24.8-8.1,32.4-18.7
			c8-11.3,20.6-18.5,34.4-19.8c13-1.3,24.8-8.1,32.4-18.7c6.5-9.1,16-15.6,26.7-18.5C481.3,269.3,481.5,270.2,481.7,271.1z"/>
		<path class="st2" d="M483.9,288c-7.5,3.2-14,8.5-18.8,15.2c-8,11.3-20.6,18.5-34.4,19.8c-13,1.3-24.8,8.1-32.4,18.7
			c-8,11.3-20.6,18.5-34.4,19.8c-13,1.2-24.8,8.1-32.4,18.7c-8,11.3-20.6,18.5-34.4,19.8c-6.5,0.5-12.7,2.5-18.2,5.8
			c-8.1,4.7-11,8.7-14.2,12.9c-8,11.3-20.6,18.5-34.4,19.8c-6.5,0.5-12.7,2.5-18.2,5.8c-5.7,3.1-10.5,7.5-14.2,12.9
			c-0.2,0.3-0.4,0.6-0.6,0.8c-0.8-0.5-1.5-1-2.3-1.5c0.2-0.3,0.5-0.6,0.7-0.9c8-11.3,20.6-18.5,34.4-19.8c6.5-0.5,12.7-2.5,18.2-5.8
			c8.1-4.7,11-8.7,14.2-12.9c8-11.3,20.6-18.5,34.4-19.8c13-1.3,24.8-8.1,32.4-18.7c8-11.3,20.6-18.5,34.4-19.8
			c13-1.3,24.8-8.1,32.4-18.7c8-11.3,20.6-18.5,34.4-19.8c13-1.2,24.8-8.1,32.4-18.7c5.3-7.4,12.5-13.1,20.8-16.5
			C483.7,286.1,483.8,287,483.9,288z"/>
		<path class="st2" d="M484.6,303.7v0.4c0,1,0,2,0,2.9c-4.2,2.9-7.9,6.6-11,10.8c-8,11.3-20.6,18.5-34.4,19.8
			c-13,1.2-24.8,8.1-32.4,18.7c-8.1,11.3-20.6,18.5-34.4,19.8c-13,1.3-24.8,8.1-32.4,18.7c-8,11.3-20.6,18.5-34.4,19.8
			c-13,1.3-24.8,8.1-32.4,18.7c-8,11.3-20.6,18.5-34.4,19.8c-10.6,1-20.4,5.7-27.8,13.2c-0.8-0.5-1.7-0.9-2.5-1.4
			c7.9-8.2,18.5-13.4,30-14.6c13-1.2,24.8-8.1,32.4-18.7c8-11.3,20.6-18.5,34.4-19.8c13-1.3,24.8-8.1,32.4-18.7
			c8-11.3,20.6-18.5,34.4-19.8c13-1.2,24.8-8.1,32.4-18.7c8-11.3,20.6-18.5,34.4-19.8c13-1.3,24.8-8.1,32.4-18.7
			C474.9,311.2,479.5,306.9,484.6,303.7z"/>
		<path class="st2" d="M483.2,326.6c-0.2,1.8-0.4,3.5-0.7,5.2c-0.1,0.2-0.3,0.4-0.5,0.6c-8,11.3-20.6,18.5-34.4,19.8
			c-6.5,0.4-12.7,2.4-18.2,5.8c-5.7,3.1-10.5,7.5-14.2,12.9c-8,11.3-20.6,18.5-34.4,19.8c-13,1.3-24.8,8.1-32.4,18.7
			c-8,11.3-20.6,18.5-34.4,19.8c-13,1.2-24.8,8.1-32.4,18.7c-8,11.3-20.6,18.5-34.4,19.8c-7,0.7-13.7,3-19.5,6.6
			c-1-0.4-2-0.9-3.1-1.3c6.6-4.4,14.2-7.2,22.3-8c13-1.3,24.8-8.1,32.4-18.7c8-11.3,20.6-18.5,34.4-19.8c13-1.3,24.8-8.1,32.4-18.7
			c8-11.3,20.6-18.5,34.4-19.8c13-1.2,24.8-8.1,32.4-18.7c8-11.3,20.6-18.5,34.3-19.8c6.5-0.5,12.7-2.5,18.2-5.9
			c8.1-4.7,11-8.7,14.2-12.9C480.9,329.4,482,328,483.2,326.6z"/>
		<path class="st2" d="M477,356.6c-0.4,1.4-0.8,2.7-1.2,4.1c-5.9,3.5-12.6,5.7-19.6,6.4c-13,1.3-24.8,8.1-32.4,18.7
			c-8,11.3-20.6,18.5-34.4,19.8c-13,1.3-24.8,8.1-32.4,18.7c-8,11.3-20.6,18.5-34.4,19.8c-13,1.2-24.8,8.1-32.4,18.7
			c-8,11.3-20.6,18.5-34.4,19.8c-1,0.1-2,0.2-3,0.4c-1.9-0.5-3.8-1-5.7-1.6c2.7-0.8,5.5-1.3,8.4-1.6c6.5-0.5,12.7-2.5,18.2-5.8
			c5.7-3.1,10.5-7.5,14.2-12.9c8-11.3,20.6-18.5,34.4-19.8c13-1.3,24.8-8.1,32.4-18.7c8-11.3,20.6-18.5,34.4-19.8
			c13-1.3,24.8-8.1,32.4-18.7c8-11.3,20.6-18.5,34.4-19.8C463.5,363.6,470.8,360.9,477,356.6z"/>
		<path class="st2" d="M469.1,378.2c-0.5,1-0.9,2-1.4,3.1c-1,0.2-2.1,0.3-3.1,0.4c-13,1.3-24.8,8.1-32.4,18.7
			c-8,11.3-20.6,18.5-34.4,19.8c-13,1.2-24.8,8.1-32.4,18.7c-8,11.3-20.6,18.5-34.4,19.8c-6.5,0.5-12.7,2.5-18.2,5.8
			c-8.1,4.7-11,8.7-14.2,12.9c-3.1,4.4-6.9,8.1-11.2,11.2c-1.5-0.1-3-0.2-4.5-0.3c7.6-4.5,10.4-8.4,13.5-12.5
			c8-11.3,20.6-18.5,34.4-19.8c13-1.3,24.8-8.1,32.4-18.7c8-11.3,20.6-18.5,34.4-19.8c13-1.3,24.8-8.1,32.4-18.7
			c8-11.3,20.6-18.5,34.4-19.8C466,378.8,467.6,378.5,469.1,378.2z"/>
		<path class="st2" d="M459.7,396.8c-0.8,1.4-1.6,2.8-2.5,4.2c-6.5,3.2-12.2,8.1-16.6,14.2c-8,11.3-20.6,18.5-34.4,19.8
			c-13,1.3-24.8,8.1-32.4,18.7c-8,11.3-20.6,18.5-34.4,19.8c-11.5,1.1-22.2,6.6-29.7,15.3c-1.2,0.1-2.5,0.1-3.7,0.2
			c8.1-10.3,20-17,33.2-18.2c13-1.3,24.8-8.1,32.4-18.7c8-11.3,20.6-18.5,34.4-19.8c13-1.3,24.8-8.1,32.4-18.7
			C443.8,405.9,451.2,400.1,459.7,396.8z"/>
		<path class="st2" d="M417.8,446.4c-1.4,1.1-2.7,2.2-4.1,3.3c-12.6,1.5-24,8.2-31.3,18.6c-0.5,0.7-1,1.4-1.5,2
			c-2.2,1.1-4.4,2.1-6.6,3.1c2.2-2,4.2-4.3,5.9-6.8c8-11.3,20.6-18.5,34.4-19.8C415.6,446.7,416.7,446.6,417.8,446.4z"/>
	</g>
</g>
</svg>
