<?xml version="1.0" encoding="utf-8"?>
<!-- Generator: Adobe Illustrator 25.0.1, SVG Export Plug-In . SVG Version: 6.00 Build 0)  -->
<svg version="1.1" id="Laag_1" xmlns="http://www.w3.org/2000/svg" xmlns:xlink="http://www.w3.org/1999/xlink" x="0px" y="0px"
	 width="500px" height="500px" viewBox="0 0 500 500" style="enable-background:new 0 0 500 500;" xml:space="preserve">
<style type="text/css">
	.st0{fill:#E7EEFF;}
</style>
<g id="waves" transform="translate(-2079.29 -1484.86)">
	<path class="st0" d="M2150.1,1484.9c-4,4.8-9.2,9.8-18.7,15.3c-13.1,7.6-21.4,8.5-29.5,9.4c-6.8,0.8-13.3,1.5-22.7,6.2v-4.7
		c9.1-4.2,15.8-4.9,22.2-5.7c8-0.9,15.5-1.8,27.8-8.9c7.2-4.1,11.7-7.9,15.2-11.6H2150.1z"/>
	<path class="st0" d="M2184.4,1484.9c-9,6-13,11.3-17.1,16.9c-4.8,6.5-9.8,13.2-22.9,20.8c-13.1,7.6-21.4,8.5-29.5,9.4
		c-8,0.9-15.5,1.8-27.8,8.9c-3,1.8-5.6,3.4-7.8,5.1v-5.2c1.7-1.2,3.6-2.3,5.7-3.6c13.1-7.6,21.4-8.5,29.5-9.4
		c8-0.9,15.5-1.8,27.8-8.9c12.3-7.1,16.9-13.2,21.6-19.6c3.4-4.6,6.9-9.3,13.3-14.4H2184.4z"/>
	<path class="st0" d="M2261.1,1484.9c-0.7,0.4-1.4,0.8-2.1,1.2c-13.1,7.6-21.4,8.5-29.4,9.4c-8,0.9-15.5,1.8-27.8,8.9
		c-12.3,7.1-16.8,13.2-21.6,19.6c-4.8,6.5-9.8,13.2-22.9,20.8c-13.1,7.5-21.4,8.5-29.5,9.4c-8,0.9-15.5,1.8-27.8,8.9
		c-11.5,6.7-16.2,12.4-20.7,18.4v-6.9c4-4.8,9.2-9.8,18.6-15.2c13.1-7.6,21.4-8.5,29.4-9.4c8-0.9,15.5-1.8,27.8-8.9
		c12.3-7.1,16.8-13.2,21.6-19.6c4.8-6.5,9.8-13.2,22.9-20.8c13.1-7.5,21.4-8.5,29.4-9.4c6.9-0.8,13.5-1.6,23.3-6.5H2261.1z"/>
	<path class="st0" d="M2296.9,1484.9c-0.7,0.9-1.4,1.9-2.1,2.8c-4.8,6.5-9.8,13.2-22.9,20.8c-13.1,7.6-21.4,8.5-29.5,9.4
		c-8,0.9-15.5,1.8-27.8,8.9c-12.3,7.1-16.8,13.2-21.6,19.6c-4.8,6.5-9.8,13.2-22.9,20.8c-13.1,7.5-21.4,8.5-29.5,9.4
		c-8,0.9-15.5,1.8-27.8,8.9c-12.3,7.1-16.8,13.2-21.6,19.6c-3.2,4.3-6.4,8.7-12,13.3v-5.7c3.6-3.4,6-6.7,8.6-10.1
		c4.8-6.5,9.8-13.2,22.9-20.8c13.1-7.6,21.4-8.5,29.4-9.4c8-0.9,15.5-1.8,27.8-8.9c12.3-7.1,16.9-13.2,21.6-19.6
		c4.8-6.5,9.8-13.2,22.9-20.8c13.1-7.5,21.4-8.5,29.5-9.4c8-0.9,15.5-1.8,27.8-8.9s16.8-13.2,21.6-19.6c0.1-0.1,0.2-0.2,0.2-0.3
		H2296.9z"/>
	<path class="st0" d="M2340.9,1484.9c-3.4,1.2-7.2,3-11.6,5.5c-12.3,7.1-16.8,13.2-21.6,19.6c-4.8,6.5-9.8,13.2-22.9,20.8
		c-13.1,7.6-21.4,8.5-29.4,9.4c-8,0.9-15.5,1.8-27.8,8.9c-12.3,7.1-16.8,13.2-21.6,19.6c-4.8,6.5-9.8,13.2-22.9,20.8
		c-13.1,7.6-21.4,8.5-29.4,9.4c-8,0.9-15.5,1.8-27.8,8.9c-12.3,7.1-16.8,13.2-21.6,19.6c-4.8,6.5-9.8,13.2-22.9,20.8
		c-0.7,0.4-1.3,0.8-2,1.1v-4.9c12.2-7.1,16.7-13.2,21.5-19.5c4.8-6.5,9.8-13.2,22.9-20.8c13.1-7.6,21.4-8.5,29.5-9.4
		c8-0.9,15.4-1.8,27.8-8.9c12.3-7.1,16.8-13.2,21.6-19.6c4.8-6.5,9.8-13.2,22.9-20.8c13.1-7.6,21.4-8.5,29.5-9.4
		c8-0.9,15.5-1.8,27.8-8.9c12.3-7.1,16.8-13.2,21.6-19.6c4.8-6.5,9.8-13.2,22.9-20.8c1.2-0.7,2.3-1.3,3.4-1.8H2340.9z"/>
	<path class="st0" d="M2412.7,1484.9c-3.3,3.1-7.5,6.2-13.2,9.5c-13.1,7.6-21.4,8.5-29.4,9.4c-8,0.9-15.5,1.8-27.8,8.9
		c-12.3,7.1-16.8,13.2-21.6,19.6c-4.8,6.5-9.8,13.2-22.9,20.8c-13.1,7.6-21.4,8.5-29.5,9.4c-8,0.9-15.4,1.8-27.8,8.9
		c-12.3,7.1-16.8,13.2-21.6,19.6c-4.8,6.5-9.8,13.2-22.9,20.8c-13.1,7.6-21.4,8.5-29.4,9.4c-8,0.9-15.5,1.8-27.8,8.9
		c-12.3,7.1-16.8,13.2-21.6,19.6c-4.8,6.5-9.8,13.2-22.9,20.8c-5.8,3.3-10.6,5.4-14.9,6.7v-4.5c3.7-1.2,7.8-3.1,12.8-5.9
		c12.3-7.1,16.8-13.2,21.6-19.6c4.8-6.5,9.8-13.2,22.9-20.8c13.1-7.6,21.4-8.5,29.4-9.4c8-0.9,15.5-1.8,27.8-8.9
		c12.3-7.1,16.8-13.2,21.6-19.6c4.8-6.5,9.8-13.2,22.9-20.8c13.1-7.6,21.4-8.5,29.5-9.4c8-0.9,15.5-1.8,27.8-8.9
		c12.3-7.1,16.8-13.2,21.6-19.6c4.8-6.5,9.8-13.2,22.9-20.8c13.1-7.6,21.4-8.5,29.5-9.4c8-0.9,15.5-1.8,27.8-8.9
		c3.5-2,6.4-4,8.8-5.8H2412.7z"/>
	<path class="st0" d="M2444.8,1484.9c-4.2,3.8-6.8,7.3-9.6,11.1c-4.8,6.5-9.8,13.2-22.9,20.8c-13.1,7.5-21.4,8.5-29.5,9.4
		c-8,0.9-15.5,1.8-27.8,8.9c-12.3,7.1-16.8,13.2-21.6,19.6c-4.8,6.5-9.8,13.2-22.9,20.8c-13.1,7.5-21.4,8.5-29.5,9.4
		c-8,0.9-15.5,1.8-27.8,8.9c-12.3,7.1-16.8,13.2-21.6,19.6c-4.8,6.5-9.8,13.2-22.9,20.8c-13.1,7.6-21.4,8.5-29.5,9.4
		c-8,0.9-15.5,1.8-27.8,8.9c-12.3,7.1-16.8,13.2-21.6,19.6c-4.8,6.5-9.8,13.2-22.9,20.8c-12.2,7-20.2,8.4-27.8,9.2v-4.2
		c7.2-0.9,14.4-2.2,25.7-8.7c12.3-7.1,16.8-13.2,21.6-19.6c4.8-6.5,9.8-13.2,22.9-20.8c13.1-7.6,21.4-8.5,29.5-9.4
		c8-0.9,15.5-1.8,27.8-8.9c12.3-7.1,16.9-13.2,21.6-19.6c4.8-6.5,9.8-13.2,22.9-20.8c13.1-7.5,21.4-8.5,29.4-9.4
		c8-0.9,15.5-1.8,27.8-8.9c12.3-7.1,16.8-13.2,21.6-19.6c4.8-6.5,9.8-13.2,22.9-20.8c13.1-7.6,21.4-8.5,29.5-9.4
		c8-0.9,15.5-1.8,27.8-8.9c12.3-7.1,16.8-13.2,21.6-19.6c2.1-2.8,4.2-5.7,6.9-8.6H2444.8z"/>
	<path class="st0" d="M2517.9,1484.9c-8.2,3.5-14.4,4.2-20.4,4.9c-8,0.9-15.5,1.8-27.8,8.9c-12.3,7.1-16.8,13.2-21.6,19.6
		c-4.8,6.5-9.8,13.2-22.9,20.8c-13.1,7.6-21.4,8.5-29.5,9.4c-8,0.9-15.5,1.8-27.8,8.9c-12.3,7.1-16.8,13.2-21.6,19.6
		c-4.8,6.5-9.8,13.2-22.9,20.8c-13.1,7.6-21.4,8.5-29.5,9.4c-8,0.9-15.4,1.8-27.8,8.9c-12.3,7.1-16.8,13.2-21.6,19.6
		c-4.8,6.5-9.8,13.2-22.9,20.8c-13.1,7.6-21.4,8.5-29.4,9.4c-8,0.9-15.5,1.8-27.8,8.9c-12.3,7.1-16.8,13.2-21.6,19.6
		c-4.8,6.5-9.8,13.2-22.9,20.8c-13.1,7.6-21.4,8.5-29.5,9.4c-3.7,0.4-7.2,0.8-11.2,1.9v-4.3c3.9-0.9,7.3-1.3,10.8-1.7
		c8-0.9,15.5-1.8,27.8-8.9c12.3-7.1,16.8-13.2,21.6-19.6c4.8-6.5,9.8-13.2,22.9-20.8c13.1-7.6,21.4-8.5,29.4-9.4
		c8-0.9,15.5-1.8,27.8-8.9c12.3-7.1,16.8-13.2,21.6-19.6c4.8-6.5,9.8-13.2,22.9-20.8c13.1-7.6,21.4-8.5,29.4-9.4
		c8-0.9,15.5-1.8,27.8-8.9c12.3-7.1,16.8-13.2,21.6-19.6c4.8-6.5,9.8-13.2,22.9-20.8c13.1-7.6,21.4-8.5,29.4-9.4
		c8-0.9,15.5-1.8,27.8-8.9c12.3-7.1,16.8-13.2,21.6-19.6c4.8-6.5,9.8-13.2,22.9-20.8c13.1-7.6,21.4-8.5,29.4-9.4
		c1.8-0.2,3.6-0.4,5.4-0.7H2517.9z"/>
	<path class="st0" d="M2560.6,1484.9c-4.3,5.6-9.5,11.4-20.7,17.8c-13.1,7.6-21.4,8.5-29.5,9.4c-8,0.9-15.5,1.8-27.8,8.9
		c-12.3,7.1-16.8,13.2-21.6,19.6c-4.8,6.5-9.8,13.2-22.9,20.8c-13.1,7.6-21.4,8.5-29.5,9.4c-8,0.9-15.4,1.8-27.8,8.9
		c-12.3,7.1-16.8,13.2-21.6,19.6c-4.8,6.5-9.8,13.2-22.9,20.8c-13.1,7.6-21.4,8.5-29.5,9.4c-8,0.9-15.5,1.8-27.8,8.9
		c-12.3,7.1-16.8,13.2-21.6,19.6c-4.8,6.5-9.8,13.2-22.9,20.8c-13.1,7.6-21.4,8.5-29.5,9.4c-8,0.9-15.5,1.8-27.8,8.9
		c-12.3,7.1-16.8,13.2-21.6,19.6c-4.8,6.5-9.8,13.2-22.9,20.8c-13.1,7.6-21.4,8.5-29.5,9.4c-7.1,0.8-13.9,1.6-24.1,6.9v-4.7
		c9.9-4.8,16.9-5.6,23.7-6.4c8-0.9,15.5-1.8,27.8-8.9c12.3-7.1,16.8-13.2,21.6-19.6c4.8-6.5,9.8-13.2,22.9-20.8
		c13.1-7.6,21.4-8.5,29.5-9.4c8-0.9,15.4-1.8,27.8-8.9c12.3-7.1,16.8-13.2,21.6-19.6c4.8-6.5,9.8-13.2,22.9-20.8
		c13.1-7.6,21.4-8.5,29.4-9.4c8-0.9,15.5-1.8,27.8-8.9c12.3-7.1,16.8-13.2,21.6-19.6c4.8-6.5,9.8-13.2,22.9-20.8
		c13.1-7.6,21.4-8.5,29.5-9.4c8-0.9,15.5-1.8,27.8-8.9c12.3-7.1,16.8-13.2,21.6-19.6c4.8-6.5,9.8-13.2,22.9-20.8
		c13.1-7.6,21.4-8.5,29.5-9.4c7.9-0.9,15.4-1.8,27.8-8.9c8.8-5.1,13.6-9.6,17.4-14.1H2560.6z"/>
	<path class="st0" d="M2579.3,1493.1v6.4c-1.2,1.6-2.4,3.1-3.6,4.7c-4.8,6.5-9.8,13.2-22.9,20.8c-13.1,7.6-21.4,8.5-29.5,9.4
		c-8,0.9-15.5,1.8-27.8,8.9c-12.3,7.1-16.8,13.2-21.6,19.6c-4.8,6.5-9.8,13.2-22.9,20.8c-13.1,7.6-21.4,8.5-29.5,9.4
		c-8,0.9-15.4,1.8-27.8,8.9c-12.3,7.1-16.8,13.2-21.6,19.6c-4.8,6.5-9.8,13.2-22.9,20.8c-13.1,7.6-21.4,8.5-29.4,9.4
		c-8,0.9-15.5,1.8-27.8,8.9c-12.3,7.1-16.8,13.2-21.6,19.6c-4.8,6.5-9.8,13.2-22.9,20.8c-13.1,7.6-21.4,8.5-29.5,9.4
		c-8,0.9-15.5,1.8-27.8,8.9c-12.3,7.1-16.8,13.2-21.6,19.6c-4.8,6.5-9.8,13.2-22.9,20.8c-13.1,7.6-21.4,8.5-29.4,9.4
		c-8,0.9-15.5,1.8-27.8,8.9c-3.7,2.1-6.7,4.2-9.2,6.2v-5.3c2.1-1.5,4.4-3,7.1-4.6c13.1-7.5,21.4-8.5,29.5-9.4
		c8-0.9,15.5-1.8,27.8-8.9c12.3-7.1,16.8-13.2,21.6-19.6c4.8-6.5,9.8-13.2,22.9-20.8c13.1-7.6,21.4-8.5,29.5-9.4
		c8-0.9,15.5-1.8,27.8-8.9c12.3-7.1,16.8-13.2,21.6-19.6c4.8-6.5,9.8-13.2,22.9-20.8c13.1-7.5,21.4-8.5,29.5-9.4
		c8-0.9,15.5-1.8,27.8-8.9c12.3-7.1,16.8-13.2,21.6-19.6c4.8-6.5,9.8-13.2,22.9-20.8c13.1-7.6,21.4-8.5,29.5-9.4
		c8-0.9,15.5-1.8,27.8-8.9c12.3-7.1,16.8-13.2,21.6-19.6c4.8-6.5,9.8-13.2,22.9-20.8c13.1-7.6,21.4-8.5,29.5-9.4
		c8-0.9,15.5-1.8,27.8-8.9c12.3-7.1,16.9-13.2,21.6-19.6C2574.4,1498.9,2576.5,1496,2579.3,1493.1z"/>
	<path class="st0" d="M2579.3,1531.4v6.1c-3.3,3.1-7.6,6.4-13.6,9.8c-13.1,7.6-21.4,8.5-29.5,9.4c-8,0.9-15.5,1.8-27.8,8.9
		c-12.3,7.1-16.8,13.2-21.6,19.6c-4.8,6.5-9.8,13.2-22.9,20.8c-13.1,7.6-21.4,8.5-29.4,9.4c-8,0.9-15.5,1.8-27.8,8.9
		c-12.3,7.1-16.8,13.2-21.6,19.6c-4.8,6.5-9.8,13.2-22.9,20.8c-13.1,7.5-21.4,8.5-29.5,9.4c-8,0.9-15.5,1.8-27.8,8.9
		c-12.3,7.1-16.8,13.2-21.6,19.6c-4.8,6.5-9.8,13.2-22.9,20.8c-13.1,7.6-21.4,8.5-29.5,9.4c-8,0.9-15.4,1.8-27.8,8.9
		c-12.3,7.1-16.8,13.2-21.6,19.6c-4.8,6.5-9.8,13.2-22.9,20.8c-13.1,7.6-21.4,8.5-29.4,9.4c-8,0.9-15.5,1.8-27.8,8.9
		c-12.3,7.1-16.8,13.2-21.6,19.6c-0.2,0.2-0.4,0.5-0.5,0.7v-7.1c4.2-5.3,9.5-10.9,20-17c13.1-7.6,21.4-8.5,29.4-9.4
		c8-0.9,15.5-1.8,27.8-8.9c12.3-7.1,16.8-13.2,21.6-19.6c4.8-6.5,9.8-13.2,22.9-20.8c13.1-7.6,21.4-8.5,29.4-9.4
		c8-0.9,15.5-1.8,27.8-8.9c12.3-7.1,16.8-13.2,21.6-19.6c4.8-6.5,9.8-13.2,22.9-20.8c13.1-7.6,21.4-8.5,29.5-9.4
		c8-0.9,15.5-1.8,27.8-8.9s16.8-13.2,21.6-19.6c4.8-6.5,9.8-13.2,22.9-20.8c13.1-7.6,21.4-8.5,29.4-9.4c8-0.9,15.5-1.8,27.8-8.9
		c12.3-7.1,16.8-13.2,21.6-19.6c4.8-6.5,9.8-13.2,22.9-20.8c13.1-7.6,21.4-8.5,29.5-9.4c8-0.9,15.5-1.8,27.8-8.9
		C2571.1,1539.3,2575.7,1535.3,2579.3,1531.4z"/>
	<path class="st0" d="M2579.3,1564.3v4.9c-0.2,0.1-0.4,0.3-0.7,0.4c-13.1,7.6-21.4,8.5-29.5,9.4c-8,0.9-15.5,1.8-27.8,8.9
		c-12.3,7.1-16.8,13.2-21.6,19.6c-4.8,6.5-9.8,13.2-22.9,20.8c-13.1,7.6-21.4,8.5-29.5,9.4c-8,0.9-15.5,1.8-27.8,8.9
		c-12.3,7.1-16.8,13.2-21.6,19.6c-4.8,6.5-9.8,13.2-22.9,20.8c-13.1,7.6-21.4,8.5-29.4,9.4c-8,0.9-15.5,1.8-27.8,8.9
		c-12.3,7.1-16.8,13.2-21.6,19.6c-4.8,6.5-9.8,13.2-22.9,20.8c-13.1,7.6-21.4,8.5-29.5,9.4c-8,0.9-15.5,1.8-27.8,8.9
		c-12.3,7.1-16.8,13.2-21.6,19.6c-4.8,6.5-9.8,13.2-22.9,20.8c-13.1,7.6-21.4,8.5-29.5,9.4c-8,0.9-15.5,1.8-27.8,8.9
		c-12.3,7.1-16.8,13.2-21.6,19.6c-3.4,4.7-7,9.4-13.4,14.5v-5.5c4.4-3.9,7.1-7.6,10-11.5c4.8-6.5,9.8-13.2,22.9-20.8
		c13.1-7.6,21.4-8.5,29.4-9.4c8-0.9,15.5-1.8,27.8-8.9c12.3-7.1,16.8-13.2,21.6-19.6c4.8-6.5,9.8-13.2,22.9-20.8
		c13.1-7.6,21.4-8.5,29.5-9.4c8-0.9,15.5-1.8,27.8-8.9c12.3-7.1,16.9-13.2,21.6-19.6c4.8-6.5,9.8-13.2,22.9-20.8
		c13.1-7.6,21.4-8.5,29.4-9.4c8-0.9,15.5-1.8,27.8-8.9c12.3-7.1,16.8-13.2,21.6-19.6c4.8-6.5,9.8-13.2,22.9-20.8
		c13.1-7.6,21.4-8.5,29.5-9.4c8-0.9,15.5-1.8,27.8-8.9c12.3-7.1,16.8-13.2,21.6-19.6c4.8-6.5,9.8-13.2,22.9-20.8
		c13.1-7.6,21.4-8.5,29.4-9.4c8-0.9,15.5-1.8,27.8-8.9C2577.5,1565.4,2578.4,1564.9,2579.3,1564.3z"/>
	<path class="st0" d="M2579.3,1593.3v4.5c-6.7,2.4-12,3-17.2,3.6c-8,0.9-15.4,1.8-27.8,8.9c-12.3,7.1-16.8,13.2-21.6,19.6
		c-4.8,6.5-9.8,13.2-22.9,20.8c-13.1,7.6-21.4,8.5-29.4,9.4c-8,0.9-15.5,1.8-27.8,8.9c-12.3,7.1-16.8,13.2-21.6,19.6
		c-4.8,6.5-9.8,13.2-22.9,20.8c-13.1,7.6-21.4,8.5-29.5,9.4c-8,0.9-15.5,1.8-27.8,8.9c-12.3,7.1-16.8,13.2-21.6,19.6
		c-4.8,6.5-9.8,13.2-22.9,20.8c-13.1,7.6-21.4,8.5-29.4,9.4c-8,0.9-15.5,1.8-27.8,8.9c-12.3,7.1-16.8,13.2-21.6,19.6
		c-4.8,6.5-9.8,13.2-22.9,20.8c-13.1,7.6-21.4,8.5-29.4,9.4c-8,0.9-15.5,1.8-27.8,8.9c-12.3,7.1-16.8,13.2-21.6,19.6
		c-4.8,6.5-9.8,13.2-22.9,20.8c-1.2,0.7-2.3,1.3-3.4,1.9v-4.8c0.4-0.2,0.9-0.5,1.3-0.7c12.3-7.1,16.8-13.2,21.6-19.6
		c4.8-6.5,9.8-13.2,22.9-20.8c13.1-7.6,21.4-8.5,29.4-9.4c8-0.9,15.5-1.8,27.8-8.9c12.3-7.1,16.8-13.2,21.6-19.6
		c4.8-6.5,9.8-13.2,22.9-20.8c13.1-7.6,21.4-8.5,29.4-9.4c8-0.9,15.5-1.8,27.8-8.9c12.3-7.1,16.8-13.2,21.6-19.6
		c4.8-6.5,9.8-13.2,22.9-20.8c13.1-7.6,21.4-8.5,29.5-9.4c8-0.9,15.4-1.8,27.8-8.9c12.3-7.1,16.8-13.2,21.6-19.6
		c4.8-6.5,9.8-13.2,22.9-20.8c13.1-7.6,21.4-8.5,29.4-9.4c8-0.9,15.5-1.8,27.8-8.9c12.3-7.1,16.8-13.2,21.6-19.6
		c4.8-6.5,9.8-13.2,22.9-20.8c13.1-7.6,21.4-8.5,29.4-9.4C2567.1,1596.6,2572.4,1596,2579.3,1593.3z"/>
	<path class="st0" d="M2579.3,1619v4.2c-1.5,0.2-2.9,0.4-4.3,0.5c-8,0.9-15.5,1.8-27.8,8.9c-12.3,7.1-16.8,13.2-21.6,19.6
		c-4.8,6.5-9.8,13.2-22.9,20.8c-13.1,7.6-21.4,8.5-29.5,9.4c-8,0.9-15.5,1.8-27.8,8.9c-12.3,7.1-16.8,13.2-21.6,19.6
		c-4.8,6.5-9.8,13.2-22.9,20.8c-13.1,7.6-21.4,8.5-29.5,9.4c-8,0.9-15.5,1.8-27.8,8.9c-12.3,7.1-16.8,13.2-21.6,19.6
		c-4.8,6.5-9.8,13.2-22.9,20.8c-13.1,7.6-21.4,8.5-29.5,9.4c-8,0.9-15.5,1.8-27.8,8.9c-12.3,7.1-16.8,13.2-21.6,19.6
		c-4.8,6.5-9.8,13.2-22.9,20.8c-13.1,7.6-21.4,8.5-29.5,9.4c-8,0.9-15.5,1.8-27.8,8.9c-12.3,7.1-16.8,13.2-21.6,19.6
		c-4.8,6.5-9.8,13.2-22.9,20.8c-6.4,3.7-11.7,5.8-16.3,7.1v-4.4c4.1-1.2,8.6-3.2,14.2-6.4c12.3-7.1,16.8-13.2,21.6-19.6
		c4.8-6.5,9.8-13.2,22.9-20.8c13.1-7.6,21.4-8.5,29.5-9.4c8-0.9,15.5-1.8,27.8-8.9c12.3-7.1,16.8-13.2,21.6-19.6
		c4.8-6.5,9.8-13.2,22.9-20.8c13.1-7.5,21.4-8.5,29.4-9.4c8-0.9,15.5-1.8,27.8-8.9c12.3-7.1,16.8-13.2,21.6-19.6
		c4.8-6.5,9.8-13.2,22.9-20.8c13.1-7.6,21.4-8.5,29.5-9.4c8-0.9,15.5-1.8,27.8-8.9c12.3-7.1,16.8-13.2,21.6-19.6
		c4.8-6.5,9.8-13.2,22.9-20.8c13.1-7.6,21.4-8.5,29.5-9.4c8-0.9,15.5-1.8,27.8-8.9c12.3-7.1,16.8-13.2,21.6-19.6
		c4.8-6.5,9.8-13.2,22.9-20.8c13.1-7.6,21.4-8.5,29.4-9.4C2576.1,1619.4,2577.7,1619.3,2579.3,1619z"/>
	<path class="st0" d="M2579.3,1643.1v4.3c-5.4,1.1-11.3,3.1-19.3,7.7c-12.3,7.1-16.8,13.2-21.6,19.6c-4.8,6.5-9.8,13.2-22.9,20.8
		c-13.1,7.5-21.4,8.5-29.4,9.4c-8,0.9-15.5,1.8-27.8,8.9c-12.3,7.1-16.8,13.2-21.6,19.6c-4.8,6.5-9.8,13.2-22.9,20.8
		c-13.1,7.6-21.4,8.5-29.5,9.4c-8,0.9-15.5,1.8-27.8,8.9c-12.3,7.1-16.8,13.2-21.6,19.6c-4.8,6.5-9.8,13.2-22.9,20.8
		c-13.1,7.5-21.4,8.5-29.4,9.4c-8,0.9-15.5,1.8-27.8,8.9c-12.3,7.1-16.8,13.2-21.6,19.6c-4.8,6.5-9.8,13.2-22.9,20.8
		c-13.1,7.6-21.4,8.5-29.5,9.4c-8,0.9-15.5,1.8-27.8,8.9c-12.3,7.1-16.8,13.2-21.6,19.6c-4.8,6.5-9.8,13.2-22.9,20.8
		c-13,7.5-21.2,8.5-29.2,9.4v-4.2c7.7-0.9,15.1-1.9,27.1-8.8c12.3-7.1,16.8-13.2,21.6-19.6c4.8-6.5,9.8-13.2,22.9-20.8
		c13.1-7.6,21.4-8.5,29.5-9.4c8-0.9,15.4-1.8,27.8-8.9c12.3-7.1,16.8-13.2,21.6-19.6c4.8-6.5,9.8-13.2,22.9-20.8
		c13.1-7.6,21.4-8.5,29.4-9.4c8-0.9,15.5-1.8,27.8-8.9c12.3-7.1,16.8-13.2,21.6-19.6c4.8-6.5,9.8-13.2,22.9-20.8
		c13.1-7.6,21.4-8.5,29.5-9.4c8-0.9,15.5-1.8,27.8-8.9c12.3-7.1,16.8-13.2,21.6-19.6c4.8-6.5,9.8-13.2,22.9-20.8
		c13.1-7.6,21.4-8.5,29.5-9.4c8-0.9,15.5-1.8,27.8-8.9c12.3-7.1,16.8-13.2,21.6-19.6c4.8-6.5,9.8-13.2,22.9-20.8
		C2566.8,1646.3,2573.4,1644.2,2579.3,1643.1z"/>
	<path class="st0" d="M2579.3,1669.4v4.6c-2,0.9-4.1,2-6.4,3.3c-12.3,7.1-16.8,13.2-21.6,19.6c-4.8,6.5-9.8,13.2-22.9,20.8
		c-13.1,7.6-21.4,8.5-29.4,9.4c-8,0.9-15.5,1.8-27.8,8.9c-12.3,7.1-16.8,13.2-21.6,19.6c-4.8,6.5-9.8,13.2-22.9,20.8
		c-13.1,7.6-21.4,8.5-29.4,9.4c-8,0.9-15.5,1.8-27.8,8.9c-12.3,7.1-16.8,13.2-21.6,19.6c-4.8,6.5-9.8,13.2-22.9,20.8
		c-13.1,7.5-21.4,8.5-29.5,9.4c-8,0.9-15.5,1.8-27.8,8.9c-12.3,7.1-16.8,13.2-21.6,19.6c-4.8,6.5-9.8,13.2-22.9,20.8
		c-13.1,7.6-21.4,8.5-29.5,9.4c-8,0.9-15.5,1.8-27.8,8.9c-12.3,7.1-16.8,13.2-21.6,19.6c-4.8,6.5-9.8,13.2-22.9,20.8
		c-13.1,7.6-21.4,8.5-29.4,9.4c-4.1,0.5-8.1,0.9-12.7,2.2v-4.4c4.5-1.2,8.4-1.6,12.2-2.1c8-0.9,15.4-1.8,27.8-8.9
		c12.3-7.1,16.8-13.2,21.6-19.6c4.8-6.5,9.8-13.2,22.9-20.8c13.1-7.6,21.4-8.5,29.4-9.4c8-0.9,15.5-1.8,27.8-8.9
		c12.3-7.1,16.8-13.2,21.6-19.6c4.8-6.5,9.8-13.2,22.9-20.8c13.1-7.6,21.4-8.5,29.5-9.4c8-0.9,15.5-1.8,27.8-8.9
		c12.3-7.1,16.8-13.2,21.6-19.6c4.8-6.5,9.8-13.2,22.9-20.8c13.1-7.6,21.4-8.5,29.4-9.4c8-0.9,15.5-1.8,27.8-8.9
		c12.3-7.1,16.8-13.2,21.6-19.6c4.8-6.5,9.8-13.2,22.9-20.8c13.1-7.6,21.4-8.5,29.4-9.4c8-0.9,15.5-1.8,27.8-8.9
		c12.3-7.1,16.8-13.2,21.6-19.6c4.8-6.5,9.8-13.2,22.9-20.8C2573.9,1672,2576.7,1670.6,2579.3,1669.4z"/>
	<path class="st0" d="M2579.3,1698.8v5.1c-7.6,5.4-11.2,10.3-15,15.4c-4.8,6.5-9.8,13.2-22.9,20.8c-13.1,7.6-21.4,8.5-29.5,9.4
		c-8,0.9-15.5,1.8-27.8,8.9c-12.3,7.1-16.8,13.2-21.6,19.6c-4.8,6.5-9.8,13.2-22.9,20.8c-13.1,7.6-21.4,8.5-29.5,9.4
		c-8,0.9-15.5,1.8-27.8,8.9c-12.3,7.1-16.8,13.2-21.6,19.6c-4.8,6.5-9.8,13.2-22.9,20.8c-13.1,7.6-21.4,8.5-29.5,9.4
		c-8,0.9-15.5,1.8-27.8,8.9c-12.3,7.1-16.8,13.2-21.6,19.6c-4.8,6.5-9.8,13.2-22.9,20.8c-13.1,7.6-21.4,8.5-29.5,9.4
		c-8,0.9-15.5,1.8-27.8,8.9c-12.3,7.1-16.8,13.2-21.6,19.6c-4.8,6.5-9.8,13.2-22.9,20.8c-13.1,7.6-21.4,8.5-29.5,9.4
		c-0.9,0.1-1.7,0.2-2.6,0.3h-17.4c7.8-3.2,13.7-3.8,19.5-4.5c8-0.9,15.5-1.8,27.8-8.9c12.3-7.1,16.8-13.2,21.6-19.6
		c4.8-6.5,9.8-13.2,22.9-20.8c13.1-7.6,21.4-8.5,29.4-9.4c8-0.9,15.5-1.8,27.8-8.9c12.3-7.1,16.8-13.2,21.6-19.6
		c4.8-6.5,9.8-13.2,22.9-20.8c13.1-7.5,21.4-8.5,29.5-9.4c8-0.9,15.5-1.8,27.8-8.9c12.3-7.1,16.8-13.2,21.6-19.6
		c4.8-6.5,9.8-13.2,22.9-20.8c13.1-7.6,21.4-8.5,29.4-9.4c8-0.9,15.5-1.8,27.8-8.9c12.3-7.1,16.8-13.2,21.6-19.6
		c4.8-6.5,9.8-13.2,22.9-20.8c13.1-7.6,21.4-8.5,29.5-9.4c8-0.9,15.5-1.8,27.8-8.9s16.8-13.2,21.6-19.6
		C2565.1,1711.1,2569.4,1705.3,2579.3,1698.8z"/>
	<path class="st0" d="M2579.3,1732.1v6.7c-0.7,1-1.4,1.9-2.2,2.9c-4.8,6.5-9.8,13.2-22.9,20.8c-13.1,7.5-21.4,8.5-29.4,9.4
		c-8,0.9-15.5,1.8-27.8,8.9c-12.3,7.1-16.8,13.2-21.6,19.6c-4.8,6.5-9.8,13.2-22.9,20.8c-13.1,7.6-21.4,8.5-29.5,9.4
		c-8,0.9-15.5,1.8-27.8,8.9c-12.3,7.1-16.8,13.2-21.6,19.6c-4.8,6.5-9.8,13.2-22.9,20.8c-13.1,7.6-21.4,8.5-29.5,9.4
		c-8,0.9-15.4,1.8-27.8,8.9c-12.3,7.1-16.8,13.2-21.6,19.6c-4.8,6.5-9.8,13.2-22.9,20.8c-13.1,7.5-21.4,8.5-29.4,9.4
		c-8,0.9-15.5,1.8-27.8,8.9c-12.3,7.1-16.8,13.2-21.6,19.6c-2,2.7-4,5.4-6.6,8.2h-6c3.9-3.6,6.5-7.1,9.2-10.7
		c4.8-6.5,9.8-13.2,22.9-20.8c13.1-7.6,21.4-8.5,29.4-9.4c8-0.9,15.5-1.8,27.8-8.9c12.3-7.1,16.8-13.2,21.6-19.6
		c4.8-6.5,9.8-13.2,22.9-20.8c13.1-7.5,21.4-8.5,29.5-9.4c8-0.9,15.5-1.8,27.8-8.9c12.3-7.1,16.8-13.2,21.6-19.6
		c4.8-6.5,9.8-13.2,22.9-20.8c13.1-7.6,21.4-8.5,29.5-9.4c8-0.9,15.4-1.8,27.8-8.9c12.3-7.1,16.8-13.2,21.6-19.6
		c4.8-6.5,9.8-13.2,22.9-20.8c13.1-7.6,21.4-8.5,29.4-9.4c8-0.9,15.5-1.8,27.8-8.9c12.3-7.1,16.8-13.2,21.6-19.6
		C2575.4,1736.9,2577.2,1734.5,2579.3,1732.1z"/>
	<path class="st0" d="M2579.3,1770.5v5.8c-3.1,2.8-7,5.6-12.2,8.6c-13.1,7.5-21.4,8.5-29.5,9.4c-8,0.9-15.5,1.8-27.8,8.9
		c-12.3,7.1-16.8,13.2-21.6,19.6c-4.8,6.5-9.8,13.2-22.9,20.8c-13.1,7.6-21.4,8.5-29.5,9.4c-8,0.9-15.5,1.8-27.8,8.9
		c-12.3,7.1-16.8,13.2-21.6,19.6c-4.8,6.5-9.8,13.2-22.9,20.8c-13.1,7.5-21.4,8.5-29.5,9.4c-8,0.9-15.5,1.8-27.8,8.9
		c-12.3,7.1-16.8,13.2-21.6,19.6c-4.8,6.5-9.8,13.2-22.9,20.8c-13.1,7.6-21.4,8.5-29.5,9.4c-8,0.9-15.5,1.8-27.8,8.9
		c-3.2,1.9-5.9,3.7-8.2,5.4h-6.6c3.2-2.9,7.3-5.9,12.8-9.1c13.1-7.5,21.4-8.5,29.5-9.4c8-0.9,15.5-1.8,27.8-8.9s16.8-13.2,21.6-19.6
		c4.8-6.5,9.8-13.2,22.9-20.8c13.1-7.6,21.4-8.5,29.5-9.4c8-0.9,15.4-1.8,27.8-8.9c12.3-7.1,16.8-13.2,21.6-19.6
		c4.8-6.5,9.8-13.2,22.9-20.8c13.1-7.5,21.4-8.5,29.4-9.4c8-0.9,15.5-1.8,27.8-8.9c12.3-7.1,16.8-13.2,21.6-19.6
		c4.8-6.5,9.8-13.2,22.9-20.8c13.1-7.6,21.4-8.5,29.5-9.4c8-0.9,15.5-1.8,27.8-8.9C2571.6,1777.4,2575.9,1773.9,2579.3,1770.5z"/>
	<path class="st0" d="M2579.3,1802.7v4.9c-12.7,7.2-20.8,8.1-28.7,9c-8,0.9-15.5,1.8-27.8,8.9c-12.3,7.1-16.8,13.2-21.6,19.6
		c-4.8,6.5-9.8,13.2-22.9,20.8c-13.1,7.6-21.4,8.5-29.5,9.4c-8,0.9-15.5,1.8-27.8,8.9s-16.8,13.2-21.6,19.6
		c-4.8,6.5-9.8,13.2-22.9,20.8c-13.1,7.6-21.4,8.5-29.5,9.4c-8,0.9-15.5,1.8-27.8,8.9c-12.3,7.1-16.8,13.2-21.6,19.6
		c-4.8,6.5-9.8,13.2-22.9,20.8c-0.9,0.5-1.8,1-2.6,1.4h-10c3.1-1.2,6.6-2.8,10.5-5.1c12.3-7.1,16.8-13.2,21.6-19.6
		c4.8-6.5,9.8-13.2,22.9-20.8c13.1-7.6,21.4-8.5,29.5-9.4c8-0.9,15.5-1.8,27.8-8.9c12.3-7.1,16.8-13.2,21.6-19.6
		c4.8-6.5,9.8-13.2,22.9-20.8c13.1-7.6,21.4-8.5,29.5-9.4c8-0.9,15.4-1.8,27.8-8.9c12.3-7.1,16.8-13.2,21.6-19.6
		c4.8-6.5,9.8-13.2,22.9-20.8c13.1-7.6,21.4-8.5,29.4-9.4c8-0.9,15.5-1.8,27.8-8.9C2578.4,1803.2,2578.8,1803,2579.3,1802.7z"/>
	<path class="st0" d="M2579.3,1831.4v4.5c-6,2-11,2.6-15.8,3.1c-8,0.9-15.4,1.8-27.8,8.9c-12.3,7.1-16.8,13.2-21.6,19.6
		c-4.8,6.5-9.8,13.2-22.9,20.8c-13.1,7.6-21.4,8.5-29.4,9.4c-8,0.9-15.5,1.8-27.8,8.9c-12.3,7.1-16.8,13.2-21.6,19.6
		c-4.8,6.5-9.8,13.2-22.9,20.8c-13.1,7.6-21.4,8.5-29.5,9.4c-8,0.9-15.5,1.8-27.8,8.9c-12.2,7.1-16.8,13.1-21.5,19.5h-5.3
		c0.6-0.8,1.2-1.6,1.8-2.4c4.8-6.5,9.8-13.2,22.9-20.8c13.1-7.6,21.4-8.5,29.5-9.4c8-0.9,15.4-1.8,27.8-8.9
		c12.3-7.1,16.8-13.2,21.6-19.6c4.8-6.5,9.8-13.2,22.9-20.8c13.1-7.6,21.4-8.5,29.4-9.4c8-0.9,15.5-1.8,27.8-8.9
		c12.3-7.1,16.8-13.2,21.6-19.6c4.8-6.5,9.8-13.2,22.9-20.8c13.1-7.6,21.4-8.5,29.5-9.4C2568.2,1834.2,2573.1,1833.6,2579.3,1831.4z
		"/>
	<path class="st0" d="M2579.3,1856.7v4.2c-1,0.1-1.9,0.2-2.9,0.3c-8,0.9-15.5,1.8-27.8,8.9c-12.3,7.1-16.8,13.2-21.6,19.6
		c-4.8,6.5-9.8,13.2-22.9,20.8c-13.1,7.6-21.4,8.5-29.5,9.4c-8,0.9-15.5,1.8-27.8,8.9c-12.3,7.1-16.8,13.2-21.6,19.6
		c-4.8,6.5-9.8,13.2-22.9,20.8c-13.1,7.5-21.4,8.5-29.5,9.4c-6.8,0.8-13.2,1.5-22.5,6.1h-8.8c0.5-0.3,1-0.6,1.4-0.9
		c13.1-7.6,21.4-8.5,29.4-9.4c8-0.9,15.5-1.8,27.8-8.9c12.3-7.1,16.8-13.2,21.6-19.6c4.8-6.5,9.8-13.2,22.9-20.8
		c13.1-7.6,21.4-8.5,29.5-9.4c8-0.9,15.4-1.8,27.8-8.9c12.3-7.1,16.8-13.2,21.6-19.6c4.8-6.5,9.8-13.2,22.9-20.8
		c13.1-7.6,21.4-8.5,29.4-9.4C2577.1,1857,2578.2,1856.8,2579.3,1856.7z"/>
	<path class="st0" d="M2579.3,1880.9v4.3c-5,1.2-10.6,3.2-17.8,7.3c-12.3,7.1-16.8,13.2-21.6,19.6c-4.8,6.5-9.8,13.2-22.9,20.8
		c-13.1,7.6-21.4,8.5-29.4,9.4c-8,0.9-15.5,1.8-27.8,8.9c-12.3,7.1-16.8,13.2-21.6,19.6c-3.3,4.5-6.7,9.1-12.7,13.9h-7.1
		c8.6-5.8,12.4-11,16.5-16.4c4.8-6.5,9.8-13.2,22.9-20.8c13.1-7.6,21.4-8.5,29.4-9.4c8-0.9,15.5-1.8,27.8-8.9
		c12.3-7.1,16.8-13.2,21.6-19.6c4.8-6.5,9.8-13.2,22.9-20.8C2567.5,1884.2,2573.8,1882,2579.3,1880.9z"/>
	<path class="st0" d="M2579.3,1907.6v4.7c-1.6,0.8-3.2,1.6-4.9,2.6c-12.3,7.1-16.8,13.2-21.6,19.6c-4.8,6.5-9.8,13.2-22.9,20.8
		c-13.1,7.6-21.4,8.5-29.5,9.4c-8,0.9-15.5,1.8-27.8,8.9c-6.9,4-11.3,7.7-14.8,11.2h-5.7c3.9-4.7,9.2-9.6,18.3-14.9
		c13.1-7.6,21.4-8.5,29.4-9.4c8-0.9,15.5-1.8,27.8-8.9c12.3-7.1,16.8-13.2,21.6-19.6c4.8-6.5,9.8-13.2,22.9-20.8
		C2574.8,1909.8,2577.1,1908.6,2579.3,1907.6z"/>
	<path class="st0" d="M2579.3,1937.2v5.2c-6.6,5-10.1,9.6-13.6,14.4c-4.8,6.5-9.8,13.2-22.9,20.8c-6.6,3.8-11.9,5.9-16.7,7.2h-25.2
		c4.4-1.1,8.2-1.6,12-2c8-0.9,15.5-1.8,27.8-8.9c12.3-7.1,16.8-13.2,21.6-19.6C2566.3,1948.9,2570.4,1943.3,2579.3,1937.2z"/>
</g>
</svg>
